<?xml version="1.0" encoding="UTF-8" standalone="no"?>
<!-- Created with Inkscape (http://www.inkscape.org/) -->

<svg
   width="500"
   height="500"
   viewBox="0 0 132.29167 132.29167"
   version="1.1"
   id="svg1166"
   inkscape:version="1.1.2 (76b9e6a115, 2022-02-25)"
   sodipodi:docname="color-rock--1.svg"
   xmlns:inkscape="http://www.inkscape.org/namespaces/inkscape"
   xmlns:sodipodi="http://sodipodi.sourceforge.net/DTD/sodipodi-0.dtd"
   xmlns="http://www.w3.org/2000/svg"
   xmlns:svg="http://www.w3.org/2000/svg">
  <sodipodi:namedview
     id="namedview1168"
     pagecolor="#ffffff"
     bordercolor="#666666"
     borderopacity="1.0"
     inkscape:pageshadow="2"
     inkscape:pageopacity="0.0"
     inkscape:pagecheckerboard="0"
     inkscape:document-units="mm"
     showgrid="false"
     units="px"
     inkscape:zoom="1.0998546"
     inkscape:cx="-62.28096"
     inkscape:cy="374.14036"
     inkscape:window-width="2488"
     inkscape:window-height="1376"
     inkscape:window-x="2632"
     inkscape:window-y="1467"
     inkscape:window-maximized="1"
     inkscape:current-layer="g873" />
  <defs
     id="defs1163" />
  <g
     inkscape:label="Layer 1"
     inkscape:groupmode="layer"
     id="layer1">
    <g
       id="g873"
       transform="matrix(0.2465771,0,0,0.26458333,119.91045,-0.88102918)">
      <g
         id="g846"
         transform="translate(0,96.47431)">
        <path
           class="cls-4"
           d="m -313.92883,254.78992 v 0 a 29.23,29.23 0 0 1 -29.23,-29.23 v -38.24 a 29.23,29.23 0 0 1 29.23,-29.22 v 0 a 29.22,29.22 0 0 1 29.22,29.22 v 38.24 a 29.22,29.22 0 0 1 -29.22,29.23 z m 220.999999,5 a 53.4,53.4 0 0 0 -53.429999,-53.35 h -127.89 a 10.46,10.46 0 0 0 -10.46,10.46 v 6.54 a 46.34,46.34 0 0 0 46.34,46.34 h 63.46 m -47.58,-119.88 v 56.54 m 116.23,18.14 v -77.0701 a 26.67,26.67 0 1 0 -53.33,0 v 2.3901 a 31.45,31.45 0 0 0 -62.9,0 v -0.3401 a 31.11,31.11 0 0 0 -62.22,0 v 37.7601 a 29.23,29.23 0 0 0 -58.45,0 v 93.89 a 107,107 0 0 0 107,107 h 14.79 a 128.4,128.4 0 0 0 128.389999,-128.38 53.17,53.17 0 0 0 -13.279999,-35.25 z m -53.33,-74.68 v 56.54 m -16.05,63.34 v 0 a 51.49,51.49 0 0 0 -51.49,51.49 v 15.22"
           id="path78-62"
           style="isolation:isolate;fill:none;stroke:#333333;stroke-width:37.2913;stroke-linecap:round;stroke-linejoin:round;stroke-miterlimit:4;stroke-dasharray:none" />
        <path
           class="cls-29"
           d="m -313.92883,254.78992 v 0 a 29.23,29.23 0 0 1 -29.23,-29.23 v -38.24 a 29.23,29.23 0 0 1 29.23,-29.22 v 0 a 29.22,29.22 0 0 1 29.22,29.22 v 38.24 a 29.22,29.22 0 0 1 -29.22,29.23 z m 220.999999,5 a 53.4,53.4 0 0 0 -53.429999,-53.35 h -127.89 a 10.46,10.46 0 0 0 -10.46,10.46 v 6.54 a 46.34,46.34 0 0 0 46.34,46.34 h 63.46 m -47.58,-119.88 v 56.54 m 116.23,18.14 v -77.0701 a 26.67,26.67 0 1 0 -53.33,0 v 2.3901 a 31.45,31.45 0 0 0 -62.9,0 v -0.3401 a 31.11,31.11 0 0 0 -62.22,0 v 37.7601 a 29.23,29.23 0 0 0 -58.45,0 v 93.89 a 107,107 0 0 0 107,107 h 14.79 a 128.4,128.4 0 0 0 128.389999,-128.38 53.17,53.17 0 0 0 -13.279999,-35.25 z m -53.33,-74.68 v 56.54 m -16.05,63.34 v 0 a 51.49,51.49 0 0 0 -51.49,51.49 v 15.22"
           id="path94-6"
           style="display:inline;isolation:isolate;fill:none;stroke:#ff36b5;stroke-width:18.6456;stroke-linecap:round;stroke-linejoin:round;stroke-miterlimit:4;stroke-dasharray:none" />
        <path
           class="cls-32"
           d="m -313.92893,254.78992 v 0 a 29.23,29.23 0 0 1 -29.23,-29.23 v -38.24 a 29.23,29.23 0 0 1 29.23,-29.22 v 0 a 29.22,29.22 0 0 1 29.2201,29.22 v 38.24 a 29.22,29.22 0 0 1 -29.2201,29.23 z m 221.000099,5 a 53.4,53.4 0 0 0 -53.429999,-53.35 h -127.89 a 10.46,10.46 0 0 0 -10.46,10.46 v 6.54 a 46.34,46.34 0 0 0 46.34,46.34 h 63.46 m -47.58,-119.88 v 56.54 m 116.23,18.14 v -77.0701 a 26.67,26.67 0 1 0 -53.33,0 v 2.3901 a 31.450002,31.450002 0 0 0 -62.9,0 v -0.3401 a 31.11,31.11 0 0 0 -62.22,0 v 37.7601 a 29.23,29.23 0 0 0 -58.4501,0 v 93.8899 a 107,107 0 0 0 107.0001,107 h 14.79 a 128.4,128.4 0 0 0 128.389999,-128.3799 53.17,53.17 0 0 0 -13.279999,-35.25 z m -53.33,-74.68 v 56.54 m -16.05,63.34 v 0 a 51.49,51.49 0 0 0 -51.49,51.4899 v 15.22"
           id="path100-1"
           style="isolation:isolate;fill:none;stroke:#ff88e3;stroke-width:6.21521;stroke-linecap:round;stroke-linejoin:round;stroke-miterlimit:4;stroke-dasharray:none" />
      </g>
    </g>
  </g>
</svg>
