<?xml version="1.0" encoding="UTF-8" standalone="no"?>
<!-- Created with Inkscape (http://www.inkscape.org/) -->

<svg
   width="500"
   height="500"
   viewBox="0 0 132.29167 132.29167"
   version="1.1"
   id="svg1166"
   inkscape:version="1.1.2 (76b9e6a115, 2022-02-25)"
   sodipodi:docname="color-scissors--3.svg"
   xmlns:inkscape="http://www.inkscape.org/namespaces/inkscape"
   xmlns:sodipodi="http://sodipodi.sourceforge.net/DTD/sodipodi-0.dtd"
   xmlns="http://www.w3.org/2000/svg"
   xmlns:svg="http://www.w3.org/2000/svg">
  <sodipodi:namedview
     id="namedview1168"
     pagecolor="#ffffff"
     bordercolor="#666666"
     borderopacity="1.0"
     inkscape:pageshadow="2"
     inkscape:pageopacity="0.0"
     inkscape:pagecheckerboard="0"
     inkscape:document-units="mm"
     showgrid="false"
     units="px"
     inkscape:zoom="1.292067"
     inkscape:cx="22.831634"
     inkscape:cy="179.17028"
     inkscape:window-width="2488"
     inkscape:window-height="1376"
     inkscape:window-x="2632"
     inkscape:window-y="1467"
     inkscape:window-maximized="1"
     inkscape:current-layer="g1156" />
  <defs
     id="defs1163" />
  <g
     inkscape:label="Layer 1"
     inkscape:groupmode="layer"
     id="layer1">
    <g
       id="g868"
       transform="matrix(0.27756191,0,0,0.28356332,19.674332,6.4026089)">
      <g
         id="g1156">
        <g
           id="g847"
           transform="translate(0,18.105116)">
          <path
             class="cls-4"
             d="m 141.22497,358.16074 v -14.8 a 50,50 0 0 1 50,-50 v 0 m 76.86,-280.59 a 28.2,28.2 0 0 0 -31.84,24 l -22.43,154.11 -22.34,-153.7 a 28.19,28.19 0 1 0 -55.83,7.8499 l 16.38,116.52 a 30,30 0 0 0 -49.55,22.7401 v 27.07 a 30,30 0 1 0 -59.949991,0 v 81.28 c 0,59.87 45.18,112.15 104.929991,116 61.55,4 119.89,-42.48 119.89,-115.34 0,-96.21 0,-64.06 24.74,-248.75 a 28.19,28.19 0 0 0 -23.96,-31.82 z m -116.14,148.45 m -79.419991,20.16 v 0 a 30,30 0 0 0 -30,30 v 36.6 a 30,30 0 0 0 30,30 v 0 a 30,30 0 0 0 29.999991,-30 v -36.6 a 30,30 0 0 0 -29.999991,-30 z m 89.949991,53.44 v -50.53 a 30,30 0 0 0 -30,-30 v 0 a 30,30 0 0 0 -30,30 v 50.53 m 164.87,58.5 v 0 a 58.5,58.5 0 0 0 -58.49,-58.5 h -91.06 a 15.5,15.5 0 0 0 -15.5,15.51 v 0 a 43,43 0 0 0 43,43 h 46"
             id="path22-1"
             style="isolation:isolate;fill:none;stroke:#333333;stroke-width:33.9516;stroke-linecap:round;stroke-linejoin:round;stroke-miterlimit:4;stroke-dasharray:none" />
          <path
             class="cls-12"
             d="m 141.22497,358.16074 v -14.8 a 50,50 0 0 1 50,-50 v 0 m 76.86,-280.59 a 28.2,28.2 0 0 0 -31.84,24 l -22.43,154.11 -22.34,-153.7 a 28.19,28.19 0 1 0 -55.83,7.8499 l 16.38,116.52 a 30,30 0 0 0 -49.55,22.7401 v 27.07 a 30,30 0 1 0 -59.949991,0 v 81.28 c 0,59.87 45.18,112.15 104.929991,116 61.55,4 119.89,-42.48 119.89,-115.34 0,-96.21 0,-64.06 24.74,-248.75 a 28.19,28.19 0 0 0 -23.96,-31.82 z m -116.14,148.45 m -79.419991,20.16 v 0 a 30,30 0 0 0 -30,30 v 36.6 a 30,30 0 0 0 30,30 v 0 a 30,30 0 0 0 29.999991,-30 v -36.6 a 30,30 0 0 0 -29.999991,-30 z m 89.949991,53.44 v -50.53 a 30,30 0 0 0 -30,-30 v 0 a 30,30 0 0 0 -30,30 v 50.53 m 164.87,58.5 v 0 a 58.5,58.5 0 0 0 -58.49,-58.5 h -91.06 a 15.5,15.5 0 0 0 -15.5,15.51 v 0 a 43,43 0 0 0 43,43 h 46"
             id="path38-2"
             style="isolation:isolate;fill:none;stroke:#ffa41a;stroke-width:16.9758;stroke-linecap:round;stroke-linejoin:round;stroke-miterlimit:4;stroke-dasharray:none" />
          <path
             class="cls-15"
             d="m 141.22497,358.16074 v -14.8 a 50,50 0 0 1 50,-50 v 0 m 76.86,-280.59 a 28.2,28.2 0 0 0 -31.84,24 l -22.43,154.11 -22.34,-153.7 a 28.19,28.19 0 1 0 -55.83,7.8499 l 16.38,116.52 a 30,30 0 0 0 -49.55,22.7401 v 27.07 a 30,30 0 1 0 -59.949991,0 v 81.28 c 0,59.87 45.18,112.15 104.929991,116 61.55,4 119.89,-42.48 119.89,-115.34 0,-96.21 0,-64.06 24.74,-248.75 a 28.19,28.19 0 0 0 -23.96,-31.82 z m -116.14,148.45 m -79.419991,20.16 v 0 a 30,30 0 0 0 -30,30 v 36.6 a 30,30 0 0 0 30,30 v 0 a 30,30 0 0 0 29.999991,-30 v -36.6 a 30,30 0 0 0 -29.999991,-30 z m 89.949991,53.44 v -50.53 a 30,30 0 0 0 -30,-30 v 0 a 30,30 0 0 0 -30,30 v 50.53 m 164.87,58.5 v 0 a 58.5,58.5 0 0 0 -58.49,-58.5 h -91.06 a 15.5,15.5 0 0 0 -15.5,15.51 v 0 a 43,43 0 0 0 43,43 h 46"
             id="path44-70"
             style="isolation:isolate;fill:none;stroke:#fff648;stroke-width:5.6586;stroke-linecap:round;stroke-linejoin:round;stroke-miterlimit:4;stroke-dasharray:none" />
        </g>
      </g>
    </g>
  </g>
</svg>
