<?xml version="1.0" encoding="UTF-8" standalone="no"?>
<!-- Created with Inkscape (http://www.inkscape.org/) -->

<svg
   width="500"
   height="500"
   viewBox="0 0 132.29167 132.29167"
   version="1.1"
   id="svg1166"
   inkscape:version="1.1.2 (76b9e6a115, 2022-02-25)"
   sodipodi:docname="color-paper--2.svg"
   xmlns:inkscape="http://www.inkscape.org/namespaces/inkscape"
   xmlns:sodipodi="http://sodipodi.sourceforge.net/DTD/sodipodi-0.dtd"
   xmlns="http://www.w3.org/2000/svg"
   xmlns:svg="http://www.w3.org/2000/svg">
  <sodipodi:namedview
     id="namedview1168"
     pagecolor="#ffffff"
     bordercolor="#666666"
     borderopacity="1.0"
     inkscape:pageshadow="2"
     inkscape:pageopacity="0.0"
     inkscape:pagecheckerboard="0"
     inkscape:document-units="mm"
     showgrid="false"
     units="px"
     inkscape:zoom="1.0998546"
     inkscape:cx="-62.28096"
     inkscape:cy="374.14036"
     inkscape:window-width="2488"
     inkscape:window-height="1376"
     inkscape:window-x="2632"
     inkscape:window-y="1467"
     inkscape:window-maximized="1"
     inkscape:current-layer="g979" />
  <defs
     id="defs1163" />
  <g
     inkscape:label="Layer 1"
     inkscape:groupmode="layer"
     id="layer1">
    <g
       id="g979"
       transform="matrix(0.32388037,0,0,0.34878486,12.705573,-17.562533)">
      <g
         id="g848"
         transform="translate(0,16.881715)">
        <path
           class="cls-4"
           d="m 76.32555,143.755 v 79.68 m 46.45,-117.3 v 117.3 m 49.55,-95 v 95 m -56.45,109.96 m 102.91,-55.83 h -47.08 a 55.69,55.69 0 0 0 -42.27,19.36 m 107.64,-36.55 -18.29,17.19 v -147.81 c 0,-12.71 -9.46,-24.47 -23.23,-24.47 a 23.23,23.23 0 0 0 -23.23,23.22 v -21 c 0,-13.35 -9.91,-26.100001 -24.77,-26.100001 a 24.78,24.78 0 0 0 -24.78,24.770001 v -1.42 c 0,-12.59 -9.51,-23.300001 -23.22,-23.300001 a 23.23,23.23 0 0 0 -23.23,23.230001 v 39.07 a 20.36,20.36 0 0 0 -20.36,-20.36 c -12.21,0 -20.35,10 -20.35,21.18 v 167.18 c 0,47.59 38.35,86.84 86,86.84 46.53,0 74.61,-16.19 100.19,-44.55 l 69.27,-75.23 a 12.76,12.76 0 0 0 -0.39,-17.7 v 0 a 38.58,38.58 0 0 0 -53.61,-0.74 z"
           id="path50-9"
           style="display:inline;isolation:isolate;fill:none;stroke:#333333;stroke-width:28.3396;stroke-linecap:round;stroke-linejoin:round;stroke-miterlimit:4;stroke-dasharray:none" />
        <path
           class="cls-21"
           d="m 76.32555,143.755 v 79.68 m 46.45,-117.3 v 117.3 m 49.55,-95 v 95 m -56.45,109.96 m 102.91,-55.83 h -47.08 a 55.69,55.69 0 0 0 -42.27,19.36 m 107.64,-36.55 -18.29,17.19 v -147.81 c 0,-12.71 -9.46,-24.47 -23.23,-24.47 a 23.23,23.23 0 0 0 -23.23,23.22 v -21 c 0,-13.35 -9.91,-26.100001 -24.77,-26.100001 a 24.78,24.78 0 0 0 -24.78,24.770001 v -1.42 c 0,-12.59 -9.51,-23.300001 -23.22,-23.300001 a 23.23,23.23 0 0 0 -23.23,23.230001 v 39.07 a 20.36,20.36 0 0 0 -20.36,-20.36 c -12.21,0 -20.35,10 -20.35,21.18 v 167.18 c 0,47.59 38.35,86.84 86,86.84 46.53,0 74.61,-16.19 100.19,-44.55 l 69.27,-75.23 a 12.76,12.76 0 0 0 -0.39,-17.7 v 0 a 38.58,38.58 0 0 0 -53.61,-0.74 z"
           id="path66-36"
           style="display:inline;isolation:isolate;fill:none;stroke:#459bff;stroke-width:14.1698;stroke-linecap:round;stroke-linejoin:round;stroke-miterlimit:4;stroke-dasharray:none" />
        <g
           id="g973">
          <path
             class="cls-24"
             d="m 76.32555,143.755 v 79.68 m 46.45,-117.3 v 117.3 m 49.55,-95 v 95 m -56.45,109.96 m 102.91,-55.83 h -47.08 a 55.69,55.69 0 0 0 -42.27,19.36 m 107.64,-36.55 -18.29,17.19 v -147.81 c 0,-12.71 -9.46,-24.47 -23.23,-24.47 a 23.23,23.23 0 0 0 -23.23,23.22 v -21 c 0,-13.35 -9.91,-26.100001 -24.77,-26.100001 a 24.78,24.78 0 0 0 -24.78,24.770001 v -1.42 c 0,-12.59 -9.51,-23.300001 -23.22,-23.300001 a 23.23,23.23 0 0 0 -23.23,23.230001 v 39.07 a 20.36,20.36 0 0 0 -20.36,-20.36 c -12.21,0 -20.35,10 -20.35,21.18 v 167.18 c 0,47.59 38.35,86.84 86,86.84 46.53,0 74.61,-16.19 100.19,-44.55 l 69.27,-75.23 a 12.76,12.76 0 0 0 -0.39,-17.7 v 0 a 38.58,38.58 0 0 0 -53.61,-0.74 z"
             id="path72-0"
             style="display:inline;isolation:isolate;fill:none;fill-opacity:1;stroke:#70dcff;stroke-width:4.72327;stroke-linecap:round;stroke-linejoin:round;stroke-miterlimit:4;stroke-dasharray:none;stroke-opacity:1" />
        </g>
      </g>
    </g>
  </g>
</svg>
