<?xml version="1.0" encoding="UTF-8" standalone="no"?>
<!-- Created with Inkscape (http://www.inkscape.org/) -->

<svg
   width="500"
   height="500"
   viewBox="0 0 132.29167 132.29167"
   version="1.1"
   id="svg1166"
   inkscape:version="1.1.2 (76b9e6a115, 2022-02-25)"
   sodipodi:docname="grey-paper.svg"
   xmlns:inkscape="http://www.inkscape.org/namespaces/inkscape"
   xmlns:sodipodi="http://sodipodi.sourceforge.net/DTD/sodipodi-0.dtd"
   xmlns="http://www.w3.org/2000/svg"
   xmlns:svg="http://www.w3.org/2000/svg">
  <sodipodi:namedview
     id="namedview1168"
     pagecolor="#ffffff"
     bordercolor="#666666"
     borderopacity="1.0"
     inkscape:pageshadow="2"
     inkscape:pageopacity="0.0"
     inkscape:pagecheckerboard="0"
     inkscape:document-units="mm"
     showgrid="false"
     units="px"
     inkscape:zoom="1.3"
     inkscape:cx="249.61538"
     inkscape:cy="374.23077"
     inkscape:window-width="2488"
     inkscape:window-height="1376"
     inkscape:window-x="2632"
     inkscape:window-y="1467"
     inkscape:window-maximized="1"
     inkscape:current-layer="g1161" />
  <defs
     id="defs1163" />
  <g
     inkscape:label="Layer 1"
     inkscape:groupmode="layer"
     id="layer1">
    <g
       id="g1161"
       transform="matrix(0.26458333,0,0,0.26458333,-11.196263,198.19892)">
      <path
         class="cls-4"
         d="m 183.66775,-602.91797 v 105.03756 m 56.86001,-154.62982 v 154.62982 m 60.65501,-125.23303 v 125.23303 m -69.10128,144.95389 m 125.97365,-73.59745 h -57.63132 a 68.170953,73.412897 0 0 0 -51.74334,25.52117 m 131.76375,-48.18175 -22.38909,22.66058 v -194.84939 c 0,-16.75485 -11.58012,-32.25738 -28.43618,-32.25738 a 28.436187,30.622762 0 0 0 -28.43619,30.60958 v -27.68308 c 0,-17.59853 -12.13098,-34.40612 -30.32132,-34.40612 a 30.333565,32.666037 0 0 0 -30.33369,32.65286 v -1.87191 c 0,-16.59666 -11.64133,-30.71504 -28.42383,-30.71504 a 28.436187,30.622762 0 0 0 -28.43618,30.62277 v 51.50371 a 24.922977,26.839407 0 0 0 -24.92298,-26.83941 c -14.94644,0 -24.91074,13.18242 -24.91074,27.92037 v 220.38374 c 0,62.73513 46.94481,114.47613 105.27388,114.47613 56.95806,0 91.3312,-21.34234 122.64406,-58.72768 l 84.79446,-99.17135 a 15.619705,16.820768 0 0 0 -0.4774,-23.33288 v 0 a 47.226349,50.857776 0 0 0 -65.6248,-0.9755 z"
         id="path50-5"
         style="display:inline;isolation:isolate;fill:none;stroke:#333333;stroke-width:36;stroke-linecap:round;stroke-linejoin:round;stroke-miterlimit:4;stroke-dasharray:none" />
      <path
         class="cls-21"
         d="m 183.66775,-602.91797 v 105.03756 m 56.86001,-154.62982 v 154.62982 m 60.65501,-125.23303 v 125.23303 m -69.10128,144.95389 m 125.97365,-73.59745 h -57.63132 a 68.170953,73.412897 0 0 0 -51.74334,25.52117 m 131.76375,-48.18175 -22.38909,22.66058 v -194.84939 c 0,-16.75485 -11.58012,-32.25738 -28.43618,-32.25738 a 28.436187,30.622762 0 0 0 -28.43619,30.60958 v -27.68308 c 0,-17.59853 -12.13098,-34.40612 -30.32132,-34.40612 a 30.333565,32.666037 0 0 0 -30.33369,32.65286 v -1.87191 c 0,-16.59666 -11.64133,-30.71504 -28.42383,-30.71504 a 28.436187,30.622762 0 0 0 -28.43618,30.62277 v 51.50371 a 24.922977,26.839407 0 0 0 -24.92298,-26.83941 c -14.94644,0 -24.91074,13.18242 -24.91074,27.92037 v 220.38374 c 0,62.73513 46.94481,114.47613 105.27388,114.47613 56.95806,0 91.3312,-21.34234 122.64406,-58.72768 l 84.79446,-99.17135 a 15.619705,16.820768 0 0 0 -0.4774,-23.33288 v 0 a 47.226349,50.857776 0 0 0 -65.6248,-0.9755 z"
         id="path66-3"
         style="display:inline;isolation:isolate;fill:none;stroke:#848484;stroke-width:18;stroke-linecap:round;stroke-linejoin:round;stroke-miterlimit:4;stroke-dasharray:none;stroke-opacity:1" />
      <path
         class="cls-24"
         d="m 183.66775,-602.91784 v 105.03743 m 56.86001,-154.62969 v 154.62969 m 60.65501,-125.2329 v 125.2329 m -69.10128,144.95389 m 125.97365,-73.59745 h -57.63132 a 68.170953,73.412897 0 0 0 -51.74334,25.52117 m 131.76375,-48.18175 -22.38909,22.66058 v -194.84926 c 0,-16.75485 -11.58012,-32.25738 -28.43618,-32.25738 a 28.436187,30.622762 0 0 0 -28.43619,30.60958 v -27.68308 c 0,-17.59853 -12.13098,-34.40612 -30.32132,-34.40612 a 30.333565,32.666037 0 0 0 -30.33369,32.65286 v -1.87191 c 0,-16.59666 -11.64133,-30.71503 -28.42383,-30.71503 a 28.436187,30.622762 0 0 0 -28.43618,30.62276 v 51.50371 a 24.922977,26.839407 0 0 0 -24.92298,-26.83941 c -14.94644,0 -24.91074,13.18242 -24.91074,27.92037 v 220.38361 c 0,62.73513 46.94481,114.47613 105.27388,114.47613 56.95806,0 91.3312,-21.34234 122.64406,-58.72768 l 84.79446,-99.17135 a 15.619705,16.820768 0 0 0 -0.4774,-23.33288 v 0 a 47.226349,50.857776 0 0 0 -65.6248,-0.9755 z"
         id="path72-5"
         style="display:inline;isolation:isolate;fill:none;stroke:#dddddd;stroke-width:6;stroke-linecap:round;stroke-linejoin:round;stroke-miterlimit:4;stroke-dasharray:none;stroke-opacity:1" />
    </g>
  </g>
</svg>
