<?xml version="1.0" encoding="UTF-8" standalone="no"?>
<!-- Created with Inkscape (http://www.inkscape.org/) -->

<svg
   width="500"
   height="500"
   viewBox="0 0 132.29167 132.29167"
   version="1.1"
   id="svg1166"
   inkscape:version="1.1.2 (76b9e6a115, 2022-02-25)"
   sodipodi:docname="grey-scissors--3.svg"
   xmlns:inkscape="http://www.inkscape.org/namespaces/inkscape"
   xmlns:sodipodi="http://sodipodi.sourceforge.net/DTD/sodipodi-0.dtd"
   xmlns="http://www.w3.org/2000/svg"
   xmlns:svg="http://www.w3.org/2000/svg">
  <sodipodi:namedview
     id="namedview1168"
     pagecolor="#ffffff"
     bordercolor="#666666"
     borderopacity="1.0"
     inkscape:pageshadow="2"
     inkscape:pageopacity="0.0"
     inkscape:pagecheckerboard="0"
     inkscape:document-units="mm"
     showgrid="false"
     units="px"
     inkscape:zoom="1.8272586"
     inkscape:cx="212.06632"
     inkscape:cy="262.41496"
     inkscape:window-width="2488"
     inkscape:window-height="1376"
     inkscape:window-x="2632"
     inkscape:window-y="1467"
     inkscape:window-maximized="1"
     inkscape:current-layer="g894" />
  <defs
     id="defs1163" />
  <g
     inkscape:label="Layer 1"
     inkscape:groupmode="layer"
     id="layer1">
    <g
       id="g894"
       transform="matrix(0.27756191,0,0,0.28356332,513.58735,10.295212)">
      <g
         id="g846"
         transform="translate(0,-4.4740008)">
        <path
           class="cls-4"
           d="m -1638.2447,367.0124 v -14.8 a 50,50 0 0 1 50,-50 v 0 m 76.86,-280.590001 a 28.2,28.2 0 0 0 -31.84,24 l -22.43,154.110001 -22.34,-153.700001 a 28.19,28.19 0 1 0 -55.83,7.849999 l 16.38,116.520002 a 30,30 0 0 0 -49.55,22.74 v 27.07 a 30,30 0 1 0 -59.95,0 v 81.28 c 0,59.87 45.18,112.15 104.93,116 61.55,4 119.89,-42.48 119.89,-115.34 0,-96.21 0,-64.06 24.7399,-248.750002 a 28.19,28.19 0 0 0 -23.96,-31.819999 z m -116.14,148.450001 m -79.42,20.16 v 0 a 30,30 0 0 0 -30,30 v 36.6 a 30,30 0 0 0 30,30 v 0 a 30,30 0 0 0 30,-30 v -36.6 a 30,30 0 0 0 -30,-30 z m 89.95,53.44 v -50.53 a 30,30 0 0 0 -30,-30 v 0 a 30,30 0 0 0 -30,30 v 50.53 m 164.87,58.5 v 0 a 58.5,58.5 0 0 0 -58.49,-58.5 h -91.06 a 15.5,15.5 0 0 0 -15.5,15.51 v 0 a 43,43 0 0 0 43,43 h 46"
           id="path22-3"
           style="display:inline;isolation:isolate;fill:none;stroke:#333333;stroke-width:33.9516;stroke-linecap:round;stroke-linejoin:round;stroke-miterlimit:4;stroke-dasharray:none;stroke-opacity:1" />
        <path
           class="cls-12"
           d="m -1638.2048,366.97241 v -14.8 a 50,50 0 0 1 50,-50 v 0 m 76.86,-280.589981 a 28.2,28.2 0 0 0 -31.84,24 l -22.43,154.110001 -22.34,-153.700001 a 28.19,28.19 0 1 0 -55.83,7.849999 l 16.38,116.520002 a 30,30 0 0 0 -49.55,22.74 v 27.07 a 30,30 0 1 0 -59.95,0 v 81.27998 c 0,59.87 45.18,112.15 104.93,116 61.55,4 119.89,-42.48 119.89,-115.34 0,-96.20998 0,-64.06 24.7399,-248.749982 a 28.19,28.19 0 0 0 -23.96,-31.819999 z m -116.14,148.450001 m -79.42,20.16 v 0 a 30,30 0 0 0 -30,30 v 36.59998 a 30,30 0 0 0 30,30 v 0 a 30,30 0 0 0 30,-30 v -36.59998 a 30,30 0 0 0 -30,-30 z m 89.95,53.43998 v -50.52998 a 30,30 0 0 0 -30,-30 v 0 a 30,30 0 0 0 -30,30 v 50.52998 m 164.87,58.5 v 0 a 58.5,58.5 0 0 0 -58.49,-58.5 h -91.06 a 15.5,15.5 0 0 0 -15.5,15.51 v 0 a 43,43 0 0 0 43,43 h 46"
           id="path38-6"
           style="isolation:isolate;fill:none;stroke:#848484;stroke-width:16.9758;stroke-linecap:round;stroke-linejoin:round;stroke-miterlimit:4;stroke-dasharray:none;stroke-opacity:1" />
        <path
           class="cls-15"
           d="m -1638.2048,366.97241 v -14.8 a 50,50 0 0 1 50,-50 v 0 m 76.86,-280.590011 a 28.2,28.2 0 0 0 -31.84,24 l -22.43,154.110011 -22.34,-153.700011 a 28.19,28.19 0 1 0 -55.83,7.849999 l 16.38,116.520012 a 30,30 0 0 0 -49.55,22.74 v 27.07 a 30,30 0 1 0 -59.95,0 v 81.28 c 0,59.87 45.18,112.15 104.93,116 61.55,4 119.89,-42.48 119.89,-115.34 0,-96.21 0,-64.06 24.7399,-248.750012 a 28.19,28.19 0 0 0 -23.96,-31.819999 z m -116.14,148.450011 m -79.42,20.16 v 0 a 30,30 0 0 0 -30,30 v 36.6 a 30,30 0 0 0 30,30 v 0 a 30,30 0 0 0 30,-30 v -36.6 a 30,30 0 0 0 -30,-30 z m 89.95,53.44 v -50.53 a 30,30 0 0 0 -30,-30 v 0 a 30,30 0 0 0 -30,30 v 50.53 m 164.87,58.5 v 0 a 58.5,58.5 0 0 0 -58.49,-58.5 h -91.06 a 15.5,15.5 0 0 0 -15.5,15.51 v 0 a 43,43 0 0 0 43,43 h 46"
           id="path44-7"
           style="isolation:isolate;fill:none;stroke:#dddddd;stroke-width:5.6586;stroke-linecap:round;stroke-linejoin:round;stroke-miterlimit:4;stroke-dasharray:none;stroke-opacity:1" />
      </g>
    </g>
  </g>
</svg>
