<?xml version="1.0" encoding="UTF-8" standalone="no"?>
<!-- Created with Inkscape (http://www.inkscape.org/) -->

<svg
   width="500"
   height="500"
   viewBox="0 0 132.29167 132.29167"
   version="1.1"
   id="svg1166"
   inkscape:version="1.1.2 (76b9e6a115, 2022-02-25)"
   sodipodi:docname="grey-rock--1.svg"
   xmlns:inkscape="http://www.inkscape.org/namespaces/inkscape"
   xmlns:sodipodi="http://sodipodi.sourceforge.net/DTD/sodipodi-0.dtd"
   xmlns="http://www.w3.org/2000/svg"
   xmlns:svg="http://www.w3.org/2000/svg">
  <sodipodi:namedview
     id="namedview1168"
     pagecolor="#ffffff"
     bordercolor="#666666"
     borderopacity="1.0"
     inkscape:pageshadow="2"
     inkscape:pageopacity="0.0"
     inkscape:pagecheckerboard="0"
     inkscape:document-units="mm"
     showgrid="false"
     units="px"
     inkscape:zoom="1.587"
     inkscape:cx="72.148708"
     inkscape:cy="341.20983"
     inkscape:window-width="2488"
     inkscape:window-height="1376"
     inkscape:window-x="2632"
     inkscape:window-y="1467"
     inkscape:window-maximized="1"
     inkscape:current-layer="g899" />
  <defs
     id="defs1163" />
  <g
     inkscape:label="Layer 1"
     inkscape:groupmode="layer"
     id="layer1">
    <g
       id="g899"
       transform="matrix(0.2465771,0,0,0.26458333,611.571,51.057684)">
      <path
         class="cls-4"
         d="m -2307.8713,154.96044 v 0 a 29.23,29.23 0 0 1 -29.23,-29.23002 V 87.490416 a 29.23,29.23 0 0 1 29.23,-29.220001 v 0 a 29.22,29.22 0 0 1 29.2199,29.220001 v 38.240004 a 29.22,29.22 0 0 1 -29.2199,29.23002 z m 221,5 a 53.4,53.4 0 0 0 -53.43,-53.35002 h -127.89 a 10.46,10.46 0 0 0 -10.46,10.46 v 6.54 a 46.34,46.34 0 0 0 46.34,46.34002 h 63.46 m -47.58,-119.880025 v 56.540005 m 116.23,18.14 V 47.680415 a 26.67,26.67 0 1 0 -53.33,0 v 2.39 a 31.45,31.45 0 0 0 -62.9,0 v -0.34 a 31.11,31.11 0 0 0 -62.22,0 v 37.760001 a 29.23,29.23 0 0 0 -58.45,0 v 93.890024 a 107,107 0 0 0 107,107 h 14.79 a 128.4,128.4 0 0 0 128.39,-128.38 53.17,53.17 0 0 0 -13.28,-35.25002 z m -53.33,-74.680005 v 56.540005 m -16.05,63.34002 v 0 a 51.49,51.49 0 0 0 -51.49,51.49 v 15.22"
         id="path78-6"
         style="isolation:isolate;fill:none;stroke:#333333;stroke-width:37.2913;stroke-linecap:round;stroke-linejoin:round;stroke-miterlimit:4;stroke-dasharray:none" />
      <path
         class="cls-29"
         d="m -2307.8713,154.96044 v 0 a 29.23,29.23 0 0 1 -29.23,-29.23002 V 87.490416 a 29.23,29.23 0 0 1 29.23,-29.220001 v 0 a 29.22,29.22 0 0 1 29.2199,29.220001 v 38.240004 a 29.22,29.22 0 0 1 -29.2199,29.23002 z m 221,5 a 53.4,53.4 0 0 0 -53.43,-53.35002 h -127.89 a 10.46,10.46 0 0 0 -10.46,10.46 v 6.54 a 46.34,46.34 0 0 0 46.34,46.34002 h 63.46 m -47.58,-119.880005 v 56.539985 m 116.23,18.14 V 47.680435 a 26.67,26.67 0 1 0 -53.33,0 v 2.39 a 31.45,31.45 0 0 0 -62.9,0 v -0.34 a 31.11,31.11 0 0 0 -62.22,0 v 37.759981 a 29.23,29.23 0 0 0 -58.45,0 v 93.890024 a 107,107 0 0 0 107,107 h 14.79 a 128.4,128.4 0 0 0 128.39,-128.38 53.17,53.17 0 0 0 -13.28,-35.25002 z m -53.33,-74.679985 v 56.539985 m -16.05,63.34002 v 0 a 51.49,51.49 0 0 0 -51.49,51.49 v 15.22"
         id="path94-2"
         style="display:inline;isolation:isolate;fill:none;stroke:#848484;stroke-width:18.6456;stroke-linecap:round;stroke-linejoin:round;stroke-miterlimit:4;stroke-dasharray:none;stroke-opacity:1" />
      <path
         class="cls-32"
         d="m -2307.8715,154.96054 v 0 a 29.23,29.23 0 0 1 -29.23,-29.23002 V 87.490516 a 29.23,29.23 0 0 1 29.23,-29.220001 v 0 a 29.22,29.22 0 0 1 29.2201,29.220001 v 38.240004 a 29.22,29.22 0 0 1 -29.2201,29.23002 z m 221.0002,5 a 53.4,53.4 0 0 0 -53.43,-53.35002 h -127.89 a 10.46,10.46 0 0 0 -10.46,10.46 v 6.54 a 46.34,46.34 0 0 0 46.34,46.34002 h 63.46 m -47.58,-119.880025 v 56.540005 m 116.23,18.14 V 47.680515 a 26.67,26.67 0 1 0 -53.33,0 v 2.39 a 31.450002,31.450002 0 0 0 -62.9,0 v -0.34 a 31.11,31.11 0 0 0 -62.22,0 v 37.760001 a 29.23,29.23 0 0 0 -58.4501,0 v 93.889924 a 107,107 0 0 0 107.0001,107 h 14.79 a 128.4,128.4 0 0 0 128.39,-128.3799 53.17,53.17 0 0 0 -13.28,-35.25002 z m -53.33,-74.680005 v 56.540005 m -16.05,63.34002 v 0 a 51.49,51.49 0 0 0 -51.49,51.4899 v 15.22"
         id="path100-9"
         style="display:inline;isolation:isolate;fill:none;stroke:#dddddd;stroke-width:6.21521;stroke-linecap:round;stroke-linejoin:round;stroke-miterlimit:4;stroke-dasharray:none;stroke-opacity:1" />
    </g>
  </g>
</svg>
